<svg width="28" height="32" viewBox="0 0 28 32" fill="none" xmlns="http://www.w3.org/2000/svg">
<path fill-rule="evenodd" clip-rule="evenodd" d="M2.04286 0C1.19082 0 0.5 0.682244 0.5 1.52381V9.14284C0.5 9.9844 1.19082 10.6666 2.04286 10.6666H9.75714C10.6092 10.6666 11.3 11.3489 11.3 12.1904V19.9694C11.3 20.7226 11.9181 21.3333 12.6809 21.3333H16.7C22.6646 21.3333 27.5 16.5577 27.5 10.6666C27.5 4.77561 22.6646 0 16.7 0H2.04286ZM2.04286 21.3334C1.19077 21.3334 0.500005 22.0156 0.500005 22.8572V30.4762C0.500005 31.3178 1.19077 32 2.04286 32H9.75714C10.6092 32 11.3 31.3178 11.3 30.4762V22.8572C11.3 22.0156 10.6092 21.3334 9.75714 21.3334H2.04286Z" fill="#4B2DBB"/>
</svg>
